# xmcd
#
# Track frame offsets:
#	150
#	2147
#	19956
#	40012
#	55642
#	72905
#	93302
#	112853
#	129484
#	139434
#	157416
#	171647
#	189846
#	208007
#
# Disc length: 2987 seconds
#
# Revision: 1
# Processed by: cddbd v1.5.2PL0 Copyright (c) Steve Scherf et al.
# Submitted via: audiograbber 1.83.01
#
DISCID=c40ba90e
DTITLE=Susie Luchsinger - You've Got a Friend
DYEAR=1900
DGENRE=Country
TTITLE0=Introduction
TTITLE1=Wonderful Merciful Saviour
TTITLE2=Have I Told You Lately
TTITLE3=How Sweet it Is (To Be Loved By You)
TTITLE4=Silver and Gold
TTITLE5=You've Got A Friend
TTITLE6=Lean On Me
TTITLE7=The Little Girl
TTITLE8=William Cowper Story
TTITLE9=There Is A Fountain
TTITLE10=I Can See Clearly
TTITLE11=Shower The People
TTITLE12=Two Sparrows In A Hurricane
TTITLE13=I Just Want To Celebrate
EXTD=
EXTT0=
EXTT1=
EXTT2=
EXTT3=
EXTT4=
EXTT5=
EXTT6=
EXTT7=
EXTT8=
EXTT9=
EXTT10=
EXTT11=
EXTT12=
EXTT13=
PLAYORDER=
